<svg xmlns="http://www.w3.org/2000/svg" xmlns:xlink="http://www.w3.org/1999/xlink" id="Layer_1" x="0px" y="0px" viewBox="0 0 566.9 79.1" style="enable-background:new 0 0 566.9 79.1;" xml:space="preserve">
<style type="text/css">
	.st0{fill:#292462;}
	.st1{fill:url(#SVGID_1_);}
	.st2{fill:url(#SVGID_00000041983829702836619260000004271507726792142258_);}
</style>
<g>
	<path class="st0" d="M58.6,79.1c-2.7,0-5.2-0.6-7.5-1.7c-2.3-1.1-4.1-2.9-5.3-5.3l-23-47.7c-0.2-0.6-0.7-0.9-1.5-0.9   c-0.4,0-0.9,0.2-1.2,0.5c-0.4,0.3-0.6,0.8-0.6,1.5v51.9H0V22c0-4.3,0.6-7.8,1.9-10.5c1.2-2.8,3-5,5.2-6.8c1.7-1.3,3.7-2.4,5.9-3.3   C15.2,0.4,17.6,0,20.3,0C25.1,0,29,1.3,32,3.9c3,2.6,5.5,6,7.5,10.2l17.2,37.2c0.4,1,1,1.5,1.9,1.5c0.9,0,1.5-0.5,1.9-1.5   l17.2-37.2C79.6,9.9,82,6.5,85,3.9C88,1.3,92,0,96.8,0c2.7,0,5.1,0.4,7.3,1.3c2.2,0.9,4.2,2,5.9,3.3c2.2,1.8,4,4.1,5.2,6.8   c1.2,2.8,1.9,6.3,1.9,10.5v55.5H97.6V25.6c0-0.7-0.2-1.2-0.6-1.5c-0.4-0.3-0.8-0.5-1.2-0.5c-0.7,0-1.2,0.3-1.5,0.9l-23,47.7   c-1.2,2.4-3,4.2-5.3,5.3C63.8,78.5,61.3,79.1,58.6,79.1z"></path>
	<path class="st0" d="M207.8,1.7v20.1h-57.7c-1.2,0-1.8,0.6-1.8,1.9v8.6h59.1v14.6h-59.1v9.2c0,1.3,0.6,2,1.8,2h57.7v19.4h-69.1   C131.6,77.5,128,74,128,67V11.9c0-6.8,3.6-10.2,10.8-10.2H207.8z"></path>
	<path class="st0" d="M237.8,1.7v75.8h-20.4V1.7H237.8z"></path>
	<path class="st0" d="M343.3,62.8c0,2.8-0.4,5.3-1.2,7.3c-0.8,2.1-1.8,3.7-3.1,5c-1.3,1.3-2.8,2.3-4.5,2.9c-1.7,0.6-3.5,1-5.4,1   c-3.2,0-6-0.5-8.5-1.4c-2.4-0.9-4.5-2.4-6.3-4.5L272.6,25c-0.6-0.7-1.2-1-1.8-1c-0.5,0-1,0.2-1.3,0.6c-0.4,0.4-0.6,0.9-0.6,1.6   v51.4h-20V17.7c0-3.2,0.4-5.9,1.3-8.2c0.9-2.2,2.1-4.1,3.6-5.5c1.6-1.4,3.4-2.4,5.6-3.1c2.2-0.6,4.5-1,7.1-1c3.6,0,6.6,0.6,9.1,1.7   c2.5,1.1,4.9,3.1,7.3,5.8l37,44.3c0.3,0.4,0.6,0.6,0.9,0.7c0.3,0.1,0.6,0.2,1,0.2c1,0,1.6-0.7,1.6-2v-49h19.9V62.8z"></path>
	<g>
		<linearGradient id="SVGID_1_" gradientUnits="userSpaceOnUse" x1="275.8033" y1="119.4834" x2="556.0497" y2="-82.4264">
			<stop offset="0" style="stop-color:#2E3192"></stop>
			<stop offset="0.2029" style="stop-color:#2D449F"></stop>
			<stop offset="0.6128" style="stop-color:#2A76BF"></stop>
			<stop offset="1" style="stop-color:#27AAE1"></stop>
		</linearGradient>
		<path class="st1" d="M398.5,1.9h-36.1c-1.1,1.9-1.7,4.1-1.7,6.5c0,4.6,2.3,8.7,5.9,11.1c2.1,1.5,4.7,2.3,7.5,2.3h24.4    c9.9,0,17.9,8,17.9,17.9c0,9.9-8,17.9-17.9,17.9h-24.4c-2.8,0-5.4,0.9-7.5,2.3c-3.6,2.4-5.9,6.5-5.9,11.1c0,2.4,0.6,4.6,1.7,6.5    h36.1c14,0,26.1-7.6,32.7-18.8c-3.2-5.6-5.1-12.1-5.1-19c0-6.9,1.9-13.4,5.1-19C424.6,9.5,412.4,1.9,398.5,1.9z"></path>
		<path class="st0" d="M463.8,21.8c-9.9,0-17.9,8-17.9,17.9c0,9.9,8,17.9,17.9,17.9c9.9,0,17.9-8,17.9-17.9    C481.7,29.8,473.7,21.8,463.8,21.8z"></path>
		
			<linearGradient id="SVGID_00000140721873357475178370000006689680551006337962_" gradientUnits="userSpaceOnUse" x1="328.629" y1="192.8042" x2="608.8754" y2="-9.1056">
			<stop offset="0" style="stop-color:#2E3192"></stop>
			<stop offset="0.2029" style="stop-color:#2D449F"></stop>
			<stop offset="0.6128" style="stop-color:#2A76BF"></stop>
			<stop offset="1" style="stop-color:#27AAE1"></stop>
		</linearGradient>
		<path style="fill:url(#SVGID_00000140721873357475178370000006689680551006337962_);" d="M561.1,60c-2.2-1.5-4.7-2.3-7.5-2.3    h-24.4c-9.9,0-17.9-8-17.9-17.9c0-9.9,8-17.9,17.9-17.9h24.4c2.8,0,5.4-0.9,7.5-2.3c3.5-2.4,5.9-6.5,5.9-11.1    c0-2.4-0.6-4.6-1.7-6.5h-36.1c-14,0-26.1,7.5-32.7,18.8v0c3.3,5.6,5.1,12.1,5.1,19c0,6.9-1.9,13.4-5.1,19v0    c6.5,11.2,18.7,18.8,32.7,18.8h36.1c1.1-1.9,1.7-4.1,1.7-6.5C566.9,66.4,564.6,62.4,561.1,60z"></path>
	</g>
</g>
</svg>